<svg width="41" height="38" viewBox="0 0 41 38" fill="none" xmlns="http://www.w3.org/2000/svg">
<path id="Vector" d="M40.4509 21.6895C40.6387 21.6895 40.791 21.5372 40.791 21.3494V14.158C40.791 13.9702 40.6387 13.8179 40.4509 13.8179H35.8727C35.8666 13.8023 35.8605 13.7866 35.8519 13.7717L33.5141 9.7228C33.4202 9.56015 33.2124 9.50429 33.0496 9.59824C31.9688 10.2216 30.5814 9.85093 29.9571 8.77154C29.6547 8.24881 29.5744 7.63944 29.7308 7.05548C29.8872 6.47102 30.2619 5.98273 30.7859 5.68046C30.864 5.63531 30.9211 5.561 30.9445 5.47385C30.9678 5.3867 30.9555 5.29377 30.9104 5.21563L28.5709 1.16989C28.4771 1.0075 28.2693 0.951719 28.1065 1.04559L9.91511 11.5416L6.09095 13.7457C6.05804 13.7646 6.0299 13.7898 6.00541 13.8179H1.3401C1.15228 13.8179 1 13.9702 1 14.158V21.3494C1 21.5372 1.15228 21.6895 1.3401 21.6895C3.36123 21.6895 5.00561 23.3333 5.00561 25.3539C5.00561 27.3744 3.36131 29.0182 1.3401 29.0182C1.15228 29.0182 1 29.1705 1 29.3583V36.5498C1 36.7376 1.15228 36.8899 1.3401 36.8899H40.4509C40.6387 36.8899 40.791 36.7376 40.791 36.5498V29.3583C40.791 29.1705 40.6387 29.0182 40.4509 29.0182C38.4297 29.0182 36.7854 27.3744 36.7854 25.3539C36.7854 23.3332 38.4297 21.6895 40.4509 21.6895ZM10.255 12.1309L28.1523 1.80452L30.1608 5.27812C29.6286 5.67213 29.2476 6.23023 29.0737 6.87957C28.8703 7.6391 28.975 8.43195 29.3683 9.11207C30.1226 10.4162 31.7333 10.925 33.0854 10.3403L35.0929 13.8173L7.32789 13.8179L10.255 12.1309ZM36.1052 25.3539C36.1052 27.635 37.8728 29.5112 40.1108 29.685V36.2095H1.6802V29.685C3.91814 29.5112 5.68581 27.635 5.68581 25.3539C5.68581 23.0726 3.91814 21.1963 1.6802 21.0224V14.4981H6.32919H35.1833H40.1108V21.0224C37.8728 21.1963 36.1052 23.0726 36.1052 25.3539Z" fill="white" stroke="white" stroke-width="0.25"/>
</svg>
