<svg width="82" height="82" viewBox="0 0 82 82" fill="none" xmlns="http://www.w3.org/2000/svg">
<path d="M41.0111 9.70029C42.8503 10.0665 44.1901 11.6976 44.2733 13.6533C44.2983 14.2691 44.7477 14.7934 45.3552 14.91C45.9627 15.0348 46.5785 14.7269 46.8365 14.1693C47.6687 12.3967 49.5328 11.4064 51.372 11.7809L53.1197 12.1304C55.4249 12.5881 56.8646 15.1348 56.3153 17.365C56.1655 17.9891 56.049 18.6299 55.9242 19.2624C55.7411 20.1945 55.5497 21.1266 55.3666 22.0586C55.1169 23.2904 54.8757 24.522 54.626 25.7536C54.3348 27.2183 54.0351 28.6913 53.7438 30.156C53.4109 31.7954 53.0864 33.4348 52.7536 35.0743C52.404 36.822 52.0545 38.5779 51.6967 40.3255C51.3388 42.1232 50.9726 43.9207 50.6148 45.7099C50.2569 47.4908 49.899 49.2634 49.5413 51.0444C49.2001 52.7421 48.8588 54.4398 48.5176 56.1375C48.2097 57.6937 47.8935 59.2416 47.5856 60.7978C47.3193 62.146 47.0446 63.4942 46.7783 64.834C46.562 65.9076 46.3457 66.9811 46.1292 68.063C45.9794 68.8036 45.8296 69.5444 45.6799 70.285C45.6132 70.6263 45.5384 70.9674 45.4719 71.3086C45.4719 71.3252 45.4635 71.3419 45.4635 71.3586C46.3289 71.1755 47.2527 71.2587 48.1182 71.6582C49.9324 72.4988 50.8811 74.4545 50.5149 76.3352C50.4067 76.8928 50.6148 77.5003 51.1308 77.7416L52.7536 78.4906C53.2695 78.7319 53.8686 78.4906 54.2265 78.0494C54.2931 77.9662 81.9473 17.9808 81.9722 17.881C82.0804 17.3235 81.8723 16.7159 81.3564 16.4746L79.7336 15.7256C79.2177 15.4843 78.6185 15.7256 78.2607 16.1667C77.0705 17.6647 74.965 18.214 73.1509 17.3734C71.3367 16.5329 70.388 14.5772 70.7542 12.6964C70.8623 12.1389 70.6543 11.5313 70.1383 11.2901L68.5155 10.5411C67.9996 10.2997 67.4005 10.5411 67.0425 10.9821C65.8525 12.4801 63.747 13.0294 61.9329 12.1888C60.1188 11.3483 59.1699 9.39262 59.5361 7.51183C59.6443 6.95426 59.4363 6.34675 58.9203 6.10541L57.2975 5.35642C56.7815 5.11516 56.1823 5.35642 55.8245 5.79758C54.6344 7.29555 52.529 7.8448 50.7147 7.00427C48.9005 6.16367 47.9519 4.20798 48.318 2.32728C48.4262 1.7697 48.2181 1.16219 47.7022 0.920852L45.9046 0.0970457C45.3886 -0.144295 44.7811 0.0803984 44.5399 0.596367L40.4038 9.55915L41.0111 9.70029Z" fill="#FF3634"/>
<path d="M40.4369 81.1784C40.4869 81.0785 53.4775 16.3246 53.4775 16.2164C53.4525 15.6504 53.103 15.1012 52.5537 14.9931L50.8061 14.6435C50.2485 14.5354 49.7159 14.9015 49.4746 15.4175C48.659 17.1485 46.745 18.1722 44.781 17.781C42.8169 17.3898 41.4438 15.7004 41.3606 13.7864C41.3356 13.2205 40.9861 12.6712 40.4368 12.563L39.1552 12.305L38.6809 12.2134C38.1233 12.1052 37.5907 12.4715 37.3494 12.9874C36.5338 14.7184 34.6197 15.742 32.6558 15.3508C30.6917 14.9597 29.3186 13.2703 29.2354 11.3562C29.2104 10.7903 28.8609 10.2411 28.3116 10.1329L26.564 9.78337C26.0064 9.67519 25.4738 10.0414 25.2325 10.5574C24.4169 12.2884 22.5028 13.312 20.5388 12.9208C18.5748 12.5296 17.2017 10.8403 17.1185 8.9262C17.0935 8.3603 16.744 7.81113 16.1947 7.70286L14.2557 7.31181C13.6981 7.20353 13.1572 7.56147 13.049 8.11896C13.049 8.11896 -3.83635e-07 73.1891 -3.80725e-07 73.2557C-3.59627e-07 73.7384 0.341204 74.1628 0.823883 74.2627L2.76292 74.6538C3.3205 74.762 3.85311 74.3958 4.09445 73.8799C4.91001 72.1489 6.82408 71.1253 8.78809 71.5164C10.7521 71.9075 12.1252 73.5969 12.2085 75.511C12.2334 76.077 12.5829 76.6262 13.1322 76.7343L14.8798 77.0839C15.4374 77.1921 15.97 76.8259 16.2114 76.3099C17.0269 74.5789 18.941 73.5552 20.905 73.9464C22.869 74.3376 24.2421 76.027 24.3254 77.941C24.3503 78.5069 24.6998 79.0562 25.2491 79.1644L26.9967 79.5139C27.5543 79.6221 28.0869 79.2558 28.3283 78.74C29.1438 77.0089 31.0579 75.9853 33.0219 76.3765C34.986 76.7676 36.3591 78.457 36.4423 80.3711C36.4673 80.937 36.8168 81.4862 37.3661 81.5944L39.1137 81.9439C39.6713 82.0605 40.1956 81.6945 40.4369 81.1784ZM19.1075 25.7119C17.984 25.4872 17.2517 24.3887 17.4764 23.2652C17.7011 22.1417 18.7996 21.4094 19.9231 21.6341L33.5879 24.3803L42.0098 26.0697C43.0001 26.2695 43.6826 27.1349 43.6826 28.1086C43.6826 28.2419 43.666 28.3833 43.641 28.5164C43.4163 29.6399 42.3178 30.3722 41.1943 30.1475L31.7987 28.2584L19.1075 25.7119ZM11.5761 63.2277C10.4526 63.003 9.72024 61.9045 9.94493 60.781C10.1696 59.6576 11.2681 58.9252 12.3916 59.1499L17.1102 60.0986L22.4613 61.1721L26.7721 62.0376L34.4783 63.5772C35.4687 63.7768 36.1512 64.6424 36.1512 65.6161C36.1512 65.7492 36.1345 65.8907 36.1095 66.0238C36.1011 66.082 36.0845 66.1403 36.0679 66.1902C35.7683 67.2221 34.728 67.863 33.6629 67.6466L32.1066 67.3387L28.0788 66.5315L11.5761 63.2277Z" fill="#FF3634"/>
</svg>
